<svg width="925" height="935" viewBox="0 0 925 935" fill="none" xmlns="http://www.w3.org/2000/svg">
<g clip-path="url(#clip0_3167_7142)">
<path d="M849.932 587.877H544.918V892.799H849.932V587.877Z" fill="#0070E0"/>
<path d="M599.134 935C580.615 786.062 453.558 670.801 299.561 670.801C145.564 670.801 18.5189 786.073 0 935H599.134Z" fill="#04304C"/>
<path d="M925 19.2294C902.507 6.96417 876.71 0 849.272 0C763.563 0 693.762 68.0479 690.966 153.05H690.862L688.586 430.023H924.988V19.2294H925Z" fill="#C2EBFF"/>
<path opacity="0.91" d="M517.271 362.229C529.436 348.428 536.829 330.33 536.829 310.489C536.829 267.225 501.755 232.162 458.479 232.162C415.203 232.162 380.129 267.225 380.129 310.489C380.129 353.752 415.203 388.815 458.479 388.815C470.575 388.815 482.035 386.067 492.259 381.17L527.865 394.013L517.259 362.218L517.271 362.229Z" fill="#018B76"/>
<path d="M314.578 844.05L316.207 818.03L377.263 817.337L376.836 847.688C376.836 847.688 363.469 855.299 345.724 853.936C321.556 852.077 314.59 844.039 314.59 844.039L314.578 844.05Z" fill="#DD9083"/>
<path d="M319.027 841.659L311.125 883.213L428.685 907.906C428.685 907.906 434.704 899.267 427.345 891.194C421.58 884.877 399.122 876.642 391.289 864.654C383.456 852.666 377.149 844.454 377.149 844.454C377.149 844.454 371.811 842.676 363.112 846.268C357.867 848.439 354.309 852.7 347.793 852.573C319.535 852.065 319.027 841.659 319.027 841.659Z" fill="#EEEDEA"/>
<path d="M737.834 246.217L726.524 228.951C726.524 228.951 714.914 233.813 703.084 227.415C691.254 221.017 684.345 213.164 684.345 213.164C684.345 213.164 676.132 214.122 675.126 211.246C674.121 208.371 681.145 202.885 676.906 195.054C672.666 187.224 665.746 179.371 665.711 159.067C665.676 138.764 697.261 115.434 719.766 122.803C739.071 129.12 748.139 140.473 750.485 154.852C752.83 169.23 753.673 190.77 759.565 198.415C765.457 206.061 774.607 215.97 774.607 215.97" fill="#994F40"/>
<path d="M554.16 293.742L534.521 290.278L535.676 299.517C535.676 299.517 526.873 298.362 521.455 294.897C516.037 291.433 509.105 286.813 505.639 287.968C502.173 289.123 506.009 296.075 506.009 296.075C506.009 296.075 502.324 295.544 501.665 299.644C501.295 301.919 502.173 305.292 502.173 305.292C502.173 305.292 500.683 309.057 502.786 312.417C504.992 315.951 506.251 316.818 506.251 316.818C506.251 316.818 505.639 319.151 507.95 321.46C510.26 323.77 524.123 331.855 532.21 331.855C540.297 331.855 549.539 336.474 549.539 336.474L554.16 293.742Z" fill="#994F40"/>
<path d="M774.008 78.7424C764.407 64.0749 744.733 59.975 730.061 69.5724C715.389 79.1697 711.288 98.838 720.889 113.506C721.894 115.042 723.026 116.462 724.227 117.767C708.007 113.679 688.241 117.779 678.282 126.96C661.739 142.205 663.449 159.656 663.449 159.656C663.449 159.656 666.834 171.586 677.266 175.363C692.053 180.722 700.001 177.28 700.001 177.28C700.001 177.28 697.725 167.533 706.91 163.918C716.395 160.187 721.605 169.542 721.801 174.497C721.974 178.805 716.706 184.267 716.706 184.267C716.706 184.267 722.078 191.116 730.073 191.185C738.079 191.255 744.629 193.149 749.123 194.627C753.617 196.105 762.501 202.099 762.501 202.099C762.501 202.099 755.72 191.197 756.043 176.841C756.344 163.433 755.292 140.9 741.706 127.341C749.447 128.762 757.73 127.341 764.835 122.687C779.507 113.09 783.608 93.4214 774.008 78.754V78.7424Z" fill="#17191C"/>
<path d="M544.918 348.023L549.539 286.813C549.539 286.813 593.277 293.962 650.047 284.503C698.569 276.418 720.519 218.672 765.574 208.278C799.562 200.436 855.685 231.377 889.188 316.841C917.457 388.954 921.535 430.023 921.535 430.023H750.556L733.227 336.474C733.227 336.474 679.299 352.528 651.203 356.108C587.663 364.192 544.918 348.023 544.918 348.023Z" fill="#D74417"/>
<path d="M295.485 486.521L305.42 463.504C305.42 463.504 330.062 460.016 331.021 451.816C332.268 441.145 329.311 427.99 329.311 427.99C329.311 427.99 339.812 421.476 338.149 418.705C336.485 415.933 329.392 417.065 327.081 410.147C324.771 403.229 317.989 375.788 317.989 375.788C317.989 375.788 282.141 360.243 263.461 380.188C244.78 400.145 257.43 443.893 256.887 454.08C256.344 464.266 243.336 474.453 243.336 474.453C243.336 474.453 246.27 493.359 268.082 493.497C278.144 493.555 295.496 486.521 295.496 486.521H295.485Z" fill="#F19F8E"/>
<path d="M291.416 414.305C291.416 414.305 289.175 404.638 283.468 403.113C277.761 401.589 272.782 406.116 271.788 409.823C270.263 415.529 272.77 423.625 277.287 425.334C282.301 427.228 285.548 427.667 285.548 427.667C285.548 427.667 284.589 436.918 278.212 446.423C271.835 455.928 256.308 457.21 256.308 457.21C256.308 457.21 254.956 447.266 251.848 442.103C247.25 434.469 225.705 413.15 228.443 396.68C231.539 377.982 250.416 359.215 274.873 356.547C299.33 353.879 319.085 357.771 322.585 366.572C331.562 389.127 301.975 393.504 301.975 393.504L302.022 393.851C302.53 398.009 300.15 401.97 296.245 403.471L298.279 413.219L291.428 414.305H291.416Z" fill="#17191C"/>
<path d="M328.338 833.448H387.916V810.569L384.069 806.492C384.069 806.492 401.79 652.137 390.642 629.385C381.908 611.553 368.808 612.339 360.062 612.396C347.828 612.477 311.125 613.644 311.125 613.644L328.338 833.448Z" fill="#ABDBEF"/>
<path d="M254.09 848.358L255.719 822.338L322.077 823.643L320.333 853.301C320.333 853.301 302.969 859.618 285.224 858.256C261.056 856.396 254.09 848.358 254.09 848.358Z" fill="#F19F8E"/>
<path d="M151.558 613.644C151.558 613.644 149.098 666.839 152.956 681.449C156.815 696.059 166.808 701.325 166.808 701.325C166.808 701.325 198.832 686.311 222.792 680.64C248.266 674.6 260.315 675.247 260.315 675.247L249.49 808.386L245.747 809.691L244.973 836.901L334.114 837.513L335.777 811.158L333.559 806.169C333.559 806.169 363.804 640.853 341.6 618.945C319.396 597.036 301.373 604.797 301.373 604.797L151.547 613.632L151.558 613.644Z" fill="#C2EBFF"/>
<path d="M155.059 677.026L152.645 708.901C152.645 708.901 123.983 726.629 109.403 738.213C104.863 741.817 83.0632 762.305 83.0632 762.305C83.0632 762.305 78.6847 753.377 83.0632 746.598C87.4416 739.819 107.012 721.236 109.149 715.669C114.267 702.376 112.407 686.635 112.407 686.635L155.059 677.037V677.026Z" fill="#F19F8E"/>
<path d="M249.642 468.204C249.642 468.204 257.937 484.674 272.586 486.302C287.235 487.93 301.722 472.073 301.722 472.073C301.722 472.073 320.795 475.169 338.321 476.035C355.846 476.901 372.344 469.868 386.75 456.274C399.642 444.113 418.289 394.59 418.289 394.59L475.047 420.379C475.047 420.379 452.138 490.494 414.303 514.332C372.933 540.398 330.049 539.44 330.049 539.44L312.073 603.48L181.759 613.655L162.893 692.155L98.1406 695.273C98.1406 695.273 116.648 596.932 148.233 545.111C193.242 471.253 249.654 468.216 249.654 468.216L249.642 468.204Z" fill="#0F478D"/>
<path d="M424.25 397.292L437.998 361.605C437.998 361.605 441.498 362.368 445.01 368.304C448.522 374.24 446.697 387.915 446.697 387.915C446.697 387.915 460.352 389.52 467.884 388.238C475.417 386.956 484.37 384.415 484.37 384.415L471.801 418.889L424.262 397.281L424.25 397.292Z" fill="#F19F8E"/>
<path d="M181.746 613.644C181.746 613.644 187.672 576.906 209.576 555.205C231.48 533.504 246.614 524.149 246.614 524.149C246.614 524.149 220.967 564.964 214.174 582.08C207.381 599.196 205.672 611.75 205.672 611.75L181.734 613.644H181.746Z" fill="#0A3E7D"/>
<path d="M733.227 336.474C733.227 336.474 744.282 331.277 750.995 327.085C760.826 320.941 764.315 316.333 764.315 316.333L788.425 430.034H750.556L733.227 336.486V336.474Z" fill="#C0441E"/>
<path d="M254.089 844.027L245.031 891.633L379.736 919.917C379.736 919.917 386.621 910.008 378.199 900.768C371.591 893.527 345.863 884.103 336.898 870.348C327.933 856.593 320.69 847.203 320.69 847.203C320.69 847.203 314.578 845.159 304.597 849.282C298.589 851.765 294.511 856.65 287.048 856.512C254.678 855.934 254.089 844.004 254.089 844.004V844.027Z" fill="#F7F5F5"/>
</g>
<defs>
<clipPath id="clip0_3167_7142">
<rect width="925" height="935" fill="white"/>
</clipPath>
</defs>
</svg>
